<svg width="35" height="35" viewBox="0 0 35 35" fill="none" xmlns="http://www.w3.org/2000/svg">
<g clip-path="url(#clip0_2_172)">
<path d="M17.5 0C22.1413 0 26.5925 1.84374 29.8744 5.12563C33.1563 8.40752 35 12.8587 35 17.5C35 22.1413 33.1563 26.5925 29.8744 29.8744C26.5925 33.1563 22.1413 35 17.5 35C12.8587 35 8.40752 33.1563 5.12563 29.8744C1.84374 26.5925 0 22.1413 0 17.5C0 12.8587 1.84374 8.40752 5.12563 5.12563C8.40752 1.84374 12.8587 0 17.5 0ZM15.8594 8.20312V17.5C15.8594 18.0469 16.1328 18.5596 16.5908 18.8672L23.1533 23.2422C23.9053 23.748 24.9238 23.543 25.4297 22.7842C25.9355 22.0254 25.7305 21.0137 24.9717 20.5078L19.1406 16.625V8.20312C19.1406 7.29395 18.4092 6.5625 17.5 6.5625C16.5908 6.5625 15.8594 7.29395 15.8594 8.20312Z" fill="#EA751F"/>
</g>
<defs>
<clipPath id="clip0_2_172">
<rect width="35" height="35" fill="white"/>
</clipPath>
</defs>
</svg>
