<svg width="32" height="43" viewBox="0 0 32 43" fill="none" xmlns="http://www.w3.org/2000/svg">
<path d="M17.9399 41.798C22.2065 36.4225 31.9375 23.3941 31.9375 16.0761C31.9375 7.20077 24.7848 0 15.9688 0C7.15267 0 0 7.20077 0 16.0761C0 23.3941 9.73096 36.4225 13.9976 41.798C15.0206 43.0791 16.9169 43.0791 17.9399 41.798ZM15.9688 10.7174C17.3805 10.7174 18.7344 11.282 19.7326 12.287C20.7309 13.2919 21.2917 14.6549 21.2917 16.0761C21.2917 17.4974 20.7309 18.8604 19.7326 19.8653C18.7344 20.8703 17.3805 21.4349 15.9688 21.4349C14.557 21.4349 13.2031 20.8703 12.2049 19.8653C11.2066 18.8604 10.6458 17.4974 10.6458 16.0761C10.6458 14.6549 11.2066 13.2919 12.2049 12.287C13.2031 11.282 14.557 10.7174 15.9688 10.7174Z" fill="#EA751F"/>
</svg>
