<svg width="32" height="35" viewBox="0 0 32 35" fill="none" xmlns="http://www.w3.org/2000/svg">
<g clip-path="url(#clip0_2_148)">
<path d="M10.2861 1.68172C9.80581 0.410233 8.53954 -0.266525 7.32941 0.0957796L1.84015 1.7364C0.754773 2.06453 0 3.14461 0 4.37508C0 21.2872 12.513 35.0001 27.9453 35.0001C29.0681 35.0001 30.0537 34.1729 30.3531 32.9835L31.8502 26.9678C32.1808 25.6417 31.5632 24.254 30.403 23.7276L24.4147 20.9932C23.398 20.5284 22.219 20.8497 21.5266 21.7862L19.0066 25.1563C14.6151 22.88 11.0596 18.9835 8.98242 14.171L12.0577 11.4161C12.9122 10.6505 13.2054 9.36531 12.7812 8.25105L10.2861 1.68855V1.68172Z" fill="#EA751F"/>
</g>
<defs>
<clipPath id="clip0_2_148">
<rect width="31.9375" height="35" fill="white"/>
</clipPath>
</defs>
</svg>
