<svg width="35" height="35" viewBox="0 0 35 35" fill="none" xmlns="http://www.w3.org/2000/svg">
<path d="M17.5 13.125L14.7998 10.4248C15.1348 9.56348 15.3125 8.63379 15.3125 7.65625C15.3125 3.4248 11.8877 0 7.65625 0C3.4248 0 0 3.4248 0 7.65625C0 11.8877 3.4248 15.3125 7.65625 15.3125C8.63379 15.3125 9.56348 15.1279 10.4248 14.7998L13.125 17.5L10.4248 20.2002C9.56348 19.8652 8.63379 19.6875 7.65625 19.6875C3.4248 19.6875 0 23.1123 0 27.3438C0 31.5752 3.4248 35 7.65625 35C11.8877 35 15.3125 31.5752 15.3125 27.3438C15.3125 26.3662 15.1279 25.4365 14.7998 24.5752L34.125 5.25C34.6104 4.76465 34.6104 3.98535 34.125 3.5C32.1904 1.56543 29.0596 1.56543 27.125 3.5L17.5 13.125ZM19.0449 23.4199L27.125 31.5C29.0596 33.4346 32.1904 33.4346 34.125 31.5C34.6104 31.0146 34.6104 30.2354 34.125 29.75L23.4199 19.0449L19.0449 23.4199ZM4.375 7.65625C4.375 7.22535 4.45987 6.79867 4.62477 6.40057C4.78967 6.00247 5.03136 5.64075 5.33606 5.33606C5.64075 5.03136 6.00247 4.78967 6.40057 4.62477C6.79867 4.45987 7.22535 4.375 7.65625 4.375C8.08715 4.375 8.51383 4.45987 8.91193 4.62477C9.31003 4.78967 9.67175 5.03136 9.97644 5.33606C10.2811 5.64075 10.5228 6.00247 10.6877 6.40057C10.8526 6.79867 10.9375 7.22535 10.9375 7.65625C10.9375 8.08715 10.8526 8.51383 10.6877 8.91193C10.5228 9.31003 10.2811 9.67175 9.97644 9.97644C9.67175 10.2811 9.31003 10.5228 8.91193 10.6877C8.51383 10.8526 8.08715 10.9375 7.65625 10.9375C7.22535 10.9375 6.79867 10.8526 6.40057 10.6877C6.00247 10.5228 5.64075 10.2811 5.33606 9.97644C5.03136 9.67175 4.78967 9.31003 4.62477 8.91193C4.45987 8.51383 4.375 8.08715 4.375 7.65625ZM7.65625 24.0625C8.08715 24.0625 8.51383 24.1474 8.91193 24.3123C9.31003 24.4772 9.67175 24.7189 9.97644 25.0236C10.2811 25.3282 10.5228 25.69 10.6877 26.0881C10.8526 26.4862 10.9375 26.9128 10.9375 27.3438C10.9375 27.7747 10.8526 28.2013 10.6877 28.5994C10.5228 28.9975 10.2811 29.3593 9.97644 29.6639C9.67175 29.9686 9.31003 30.2103 8.91193 30.3752C8.51383 30.5401 8.08715 30.625 7.65625 30.625C7.22535 30.625 6.79867 30.5401 6.40057 30.3752C6.00247 30.2103 5.64075 29.9686 5.33606 29.6639C5.03136 29.3593 4.78967 28.9975 4.62477 28.5994C4.45987 28.2013 4.375 27.7747 4.375 27.3438C4.375 26.9128 4.45987 26.4862 4.62477 26.0881C4.78967 25.69 5.03136 25.3282 5.33606 25.0236C5.64075 24.7189 6.00247 24.4772 6.40057 24.3123C6.79867 24.1474 7.22535 24.0625 7.65625 24.0625Z" fill="black"/>
</svg>
