<svg width="30" height="30" viewBox="0 0 30 30" fill="none" xmlns="http://www.w3.org/2000/svg">
<path d="M25.5067 5.68945C22.7009 3.22852 18.9643 1.875 14.9933 1.875C6.79687 1.875 0.127232 7.71094 0.127232 14.8828C0.127232 17.1738 0.810268 19.4121 2.10938 21.3867L0 28.125L7.8817 26.3145C10.0513 27.3516 12.4955 27.8965 14.9866 27.8965H14.9933C23.183 27.8965 30 22.0605 30 14.8887C30 11.4141 28.3125 8.15039 25.5067 5.68945ZM14.9933 25.7051C12.7701 25.7051 10.5937 25.1836 8.69866 24.1992L8.25 23.9648L3.57589 25.0371L4.82143 21.0469L4.52679 20.6367C3.28795 18.9141 2.63839 16.9277 2.63839 14.8828C2.63839 8.92383 8.18303 4.07227 15 4.07227C18.3013 4.07227 21.4018 5.19727 23.7321 7.24219C26.0625 9.28711 27.4955 12 27.4888 14.8887C27.4888 20.8535 21.8036 25.7051 14.9933 25.7051ZM21.7701 17.6074C21.4018 17.4434 19.5737 16.6582 19.2321 16.5527C18.8906 16.4414 18.6429 16.3887 18.3951 16.7168C18.1473 17.0449 17.4375 17.7715 17.2165 17.9941C17.0022 18.2109 16.7812 18.2402 16.4129 18.0762C14.2299 17.1211 12.7969 16.3711 11.3571 14.209C10.9754 13.6348 11.7388 13.6758 12.4487 12.4336C12.5692 12.2168 12.5089 12.0293 12.4152 11.8652C12.3214 11.7012 11.5781 10.1016 11.2701 9.45117C10.9688 8.81836 10.6607 8.90625 10.433 8.89453C10.2188 8.88281 9.97098 8.88281 9.72321 8.88281C9.47545 8.88281 9.07366 8.96484 8.73214 9.28711C8.39062 9.61523 7.43304 10.4004 7.43304 12C7.43304 13.5996 8.76562 15.1465 8.94643 15.3633C9.13393 15.5801 11.5647 18.8613 15.2946 20.2734C17.6518 21.1641 18.5759 21.2402 19.7545 21.0879C20.471 20.9941 21.9509 20.3027 22.2589 19.541C22.567 18.7793 22.567 18.1289 22.4732 17.9941C22.3862 17.8477 22.1384 17.7656 21.7701 17.6074Z" fill="white"/>
</svg>
